<?xml version="1.0" encoding="UTF-8"?>
<!DOCTYPE svg PUBLIC "-//W3C//DTD SVG 1.1//EN" "http://www.w3.org/Graphics/SVG/1.1/DTD/svg11.dtd">
<!-- Creator: CorelDRAW X7 -->
<svg xmlns="http://www.w3.org/2000/svg" xml:space="preserve" width="67.5626mm" height="63.8741mm" version="1.1" style="shape-rendering:geometricPrecision; text-rendering:geometricPrecision; image-rendering:optimizeQuality; fill-rule:evenodd; clip-rule:evenodd"
viewBox="0 0 6756 6387"
 xmlns:xlink="http://www.w3.org/1999/xlink">
 <defs>
  <style type="text/css">
   <![CDATA[
    .fil0 {fill:#FEFEFE}
    .fil1 {fill:#2B2A29}
    .fil2 {fill:#E31E24}
   ]]>
  </style>
 </defs>
 <g id="Layer_x0020_1">
  <metadata id="CorelCorpID_0Corel-Layer"/>
  <path class="fil0" d="M3378 6387l2795 -1506 -191 -718c246,19 493,19 743,13l-425 -544 456 -539 -658 0 0 -1598c-75,-29 -155,-52 -243,-70l0 -380c-199,-122 -316,-155 -531,-197l0 -177c-831,-394 -3061,-394 -3892,0l0 177c-215,42 -332,75 -531,197l0 380c-88,18 -168,41 -243,70l0 1598 -658 0 456 539 -425 544c250,6 497,6 743,-13l-190 718 2794 1506z"/>
  <path class="fil1" d="M3378 6285l2689 -1450 -204 -771 126 10c184,13 369,17 553,15l-358 -459 378 -447 -554 0 0 -1625c-56,-18 -113,-33 -171,-45l-72 -15 0 -402c-157,-90 -270,-123 -458,-160l-73 -14 0 -193c-342,-145 -894,-231 -1483,-256l-37 -91c-222,-9 -449,-9 -672,0l-36 91c-589,25 -1142,111 -1484,256l0 193 -73 14c-188,37 -301,70 -458,160l0 402 -72 15c-58,12 -115,27 -171,45l0 1625 -554 0 378 447 -358 459c184,2 369,-2 553,-15l126 -10 -204 771 2689 1450z"/>
  <path class="fil0" d="M2941 3579c-55,49 -87,93 -95,171 0,0 -29,-83 -52,-88 -31,-9 -51,24 -48,52 -24,-49 -71,-62 -102,-11l734 499 735 -499c-32,-51 -79,-38 -103,11 3,-28 -16,-61 -48,-52 -22,5 -52,88 -52,88 -8,-78 -40,-122 -94,-171 442,19 891,70 1322,162 -110,28 -231,82 -282,328 -8,-54 -49,-185 -102,-263 -115,90 -113,215 -130,353 -9,-70 -24,-142 -53,-210l-727 567c106,54 239,55 350,15l773 -280c150,-55 281,-87 426,-1l426 252c94,56 144,173 113,278l-48 167c-31,105 -145,139 -242,151l-1353 175c-226,29 -435,-24 -616,-165l-295 -230 -295 230c-181,141 -389,194 -616,165l-1353 -175c-97,-12 -211,-46 -241,-151l-49 -167c-31,-105 19,-222 113,-278l426 -252c145,-86 276,-54 426,1l773 280c111,40 244,39 351,-15l-728 -567c-29,68 -44,140 -53,210 -17,-138 -15,-263 -130,-353 -53,78 -94,209 -102,263 -51,-246 -171,-300 -281,-328 430,-92 880,-143 1322,-162zm384 1638c80,-19 173,-30 255,-21 55,6 133,25 148,87l38 167c14,62 -49,113 -95,142 -70,45 -159,75 -239,93 -81,18 -174,30 -256,21 -54,-6 -133,-25 -147,-87l-39 -167c-14,-62 49,-114 95,-143 71,-44 159,-74 240,-92zm-795 -1507l786 535 -340 231 -901 -702c118,-16 335,-47 455,-64zm1254 852c90,54 251,101 434,35l773 -281c156,-56 254,-72 366,-6l427 252c84,50 97,144 81,199l-49 166c-11,38 -46,84 -183,102l-1353 174c-184,24 -381,-8 -564,-150l-281 -219 349 -272zm443 -852l-1238 842c-86,58 -256,116 -451,45l-773 -281c-155,-56 -254,-72 -366,-6l-427 252c-83,50 -97,144 -81,199l49 166c11,38 46,84 183,102l1353 174c184,24 381,-8 564,-150l1641 -1279c-118,-16 -335,-47 -454,-64zm594 758l465 272 -22 36 55 0 -52 214 -110 14 58 -238 -37 -22c-139,-85 -278,-171 -418,-253l61 -23zm-134 49c114,67 459,278 459,278l-53 218 -136 17 59 -221 -416 -260 87 -32zm-159 58l419 262 -54 201 -136 18 53 -175 81 -47 -88 -3 -354 -227 79 -29zm931 -106l-145 -86c-99,-58 -193,-23 -294,13l-151 55c114,-41 422,-63 590,18l0 0zm-3524 -1l-465 272 23 36 -56 0 52 214 110 14 -58 -238 38 -22c138,-85 277,-171 417,-253l-61 -23zm135 49c-115,67 -460,278 -460,278l53 218 136 17 -59 -221 417 -260 -87 -32zm158 58l-418 262 54 201 135 18 -53 -175 -81 -47 88 -3 354 -227 -79 -29zm-930 -106l144 -86c99,-58 194,-23 294,13l151 55c-114,-41 -421,-63 -589,18l0 0z"/>
  <path class="fil1" d="M3332 5251c185,-42 347,-24 361,40l38 167c15,64 -123,150 -307,193 -185,42 -346,24 -361,-40l-38 -167c-15,-64 123,-151 307,-193zm-65 391c-29,1 -57,1 -84,-2 -18,-2 -84,-13 -90,-36l-27 -119c49,23 136,28 238,14 -64,31 -113,43 -182,38 20,17 30,20 60,20 -10,13 -33,18 -48,19 12,13 33,25 54,32 -16,4 -30,5 -46,4 37,20 83,26 125,30zm112 -188c-168,38 -313,31 -324,-17 -8,-33 53,-78 147,-114 -52,26 -161,90 -92,118 -10,-28 -2,-48 35,-57 -22,15 -25,38 1,53 10,-7 29,-13 51,-15 33,-3 61,3 62,15 1,6 -7,12 -19,17 63,2 139,-3 174,-9 -11,3 -23,6 -35,9zm-109 -52c13,1 23,5 22,9 0,5 -10,8 -23,8 -12,-1 -22,-5 -22,-9 0,-5 10,-8 23,-8z"/>
  <path class="fil0" d="M3751 932l1001 66 -771 643 246 973 -849 -535 -849 535 246 -973 -771 -643 1001 -66 373 -932 373 932zm213 1669l0 98c-37,-2 -73,-4 -110,-6l0 -161 110 69zm-265 -167l0 253c-37,-1 -74,-2 -110,-3l0 -319 110 69zm-266 -167l0 415c-37,0 -73,0 -110,0l0 -415 55 -35 55 35zm-265 98l0 319c-37,1 -74,2 -110,3l0 -253 110 -69zm-266 167l0 161c-36,2 -73,4 -110,6l0 -98 110 -69zm-1631 398l0 -1070 -110 22 0 1078 3 0c35,-11 71,-20 107,-30zm266 -63l0 -1530 -9 1c-34,7 -68,14 -101,22l0 1531c36,-8 73,-16 110,-24zm265 -53l0 -1529 -110 21 0 1529c37,-7 73,-14 110,-21zm265 -42l0 -1552 -110 -91 0 1659c37,-6 74,-11 110,-16zm266 -34l0 -1297 -110 -91 0 1401c36,-5 73,-9 110,-13zm265 -929l0 -146 -110 -92 0 673 110 -435zm2887 1121l0 -1070 110 22 0 1078 -3 0c-35,-11 -71,-20 -107,-30zm-265 -63l0 -1530 8 1c34,7 68,14 102,22l0 1531c-37,-8 -73,-16 -110,-24zm-266 -53l0 -1529 110 21 0 1529c-36,-7 -73,-14 -110,-21zm-265 -42l0 -1552 110 -91 0 1659c-37,-6 -73,-11 -110,-16zm-266 -34l0 -1297 110 -91 0 1401c-36,-5 -73,-9 -110,-13zm-265 -929l0 -146 110 -92 0 673 -110 -435z"/>
  <path class="fil2" d="M3378 242l310 776 834 55 -642 535 205 809 -707 -445 -707 445 205 -809 -641 -535 833 -55 310 -776zm0 5850l1712 -923 -305 40 -1407 758 -1407 -758 -304 -40 1711 923zm2422 -1601l-122 -461c-33,15 -69,24 -106,28l93 353 135 80zm-4709 -80l94 -353c-38,-4 -74,-13 -107,-28l-122 461 135 -80zm4747 -1343l0 -1381c-11,-2 -23,-5 -35,-7l-208 -42 0 -439c-103,-49 -196,-72 -321,-96l-210 -41 0 -216c-311,-108 -761,-174 -1244,-199l45 112c415,24 803,80 1089,167l0 226 299 59c81,16 157,33 232,61l0 456 243 49 0 1199c18,14 34,29 47,46l63 46zm-2902 -2421c-482,25 -933,91 -1244,199l0 216 -210 41c-125,24 -218,47 -321,96l0 439 -208 42c-12,2 -23,5 -35,7l0 1381 63 -46c13,-17 29,-32 47,-46l0 -1199 243 -49 0 -456c75,-28 151,-45 232,-61l299 -59 0 -226c286,-87 674,-143 1090,-167l44 -112zm-365 3391l-121 -49 598 438 35 -24 -512 -365zm946 732l267 196c142,111 303,151 482,128l444 -57 22 -92 -497 67c-179,23 -343,-24 -486,-135l-193 -138 -39 31zm1808 188l294 -38c18,-3 76,-12 93,-26 17,-60 74,-183 28,-228 -2,94 -5,149 -156,164l-236 32 -23 96zm-1139 -920l120 -49 -1333 977c-143,111 -304,151 -483,128l-443 -57 -23 -92 497 67c179,23 344,-24 487,-135l1178 -839zm-2754 920l-295 -38c-17,-3 -76,-12 -92,-26 -18,-60 -75,-183 -28,-228 2,94 4,149 155,164l236 32 24 96zm2224 407c5,18 22,70 26,82 11,34 -40,68 -84,89 23,-17 53,-47 55,-78 1,-19 -2,-46 -28,-40 -19,5 -49,19 -77,13 45,-21 82,-43 108,-66zm-179 -106c103,-8 178,5 186,39 8,34 -54,78 -150,115 47,-26 74,-62 66,-96 -4,-18 -17,-32 -37,-42 27,-1 40,1 65,15 -27,-29 -76,-31 -130,-31zm-2911 -1344l225 -289 -230 -273c194,0 270,-12 428,-127l0 576c-117,100 -273,130 -423,113zm4881 -204c92,24 125,103 -4,115 -40,3 -73,1 -73,1 81,80 296,110 296,-58 0,-111 0,-415 0,-537 0,-123 -49,-130 -109,-147 -1275,-363 -3082,-363 -4357,0 -60,17 -110,24 -110,147 0,122 0,426 0,537 0,168 215,138 296,58 0,0 -33,2 -72,-1 -129,-12 -97,-91 -5,-115 1228,-323 2910,-323 4138,0zm743 204l-225 -289 230 -273c-194,0 -270,-12 -428,-127l0 576c117,100 273,130 423,113z"/>
  <path class="fil0" d="M1413 3539l62 -15 -61 -269 79 -18c47,-11 73,-1 80,29 8,33 -25,81 -99,143l10 43c18,-14 33,-27 45,-38l98 76 77 -18 -126 -98c26,-24 44,-47 54,-67 9,-20 12,-39 8,-56 -1,-8 -4,-15 -8,-21 -3,-6 -7,-12 -11,-16 -4,-4 -9,-7 -15,-10 -6,-2 -12,-4 -18,-6 -5,-1 -12,-2 -19,-2 -8,0 -15,0 -21,1 -5,0 -13,1 -21,2 -9,2 -16,3 -21,4 -5,1 -12,3 -20,5l-142 32 69 299zm326 -71l-51 -302 222 -37 5 29 -158 27 16 100 117 -20 4 22 -117 19 20 122 159 -26 5 29 -222 37zm265 -45l-40 -303 118 -16c24,-3 45,-3 65,0 19,3 36,9 50,16 14,8 25,18 36,30 10,12 17,24 23,38 5,14 9,28 11,44 3,22 2,43 -2,61 -4,19 -10,35 -20,48 -9,13 -20,24 -34,34 -13,9 -28,17 -43,22 -15,5 -31,9 -48,11l-28 4 -4 -30 28 -3c16,-2 29,-6 40,-12 11,-6 20,-14 28,-24 8,-11 13,-25 16,-43 2,-17 2,-38 -1,-62 -2,-13 -4,-24 -8,-34 -3,-11 -7,-21 -13,-31 -7,-10 -14,-18 -22,-24 -9,-6 -19,-11 -32,-14 -13,-2 -27,-3 -43,-1l-50 7 37 274 -64 8zm418 -94l13 -29c1,1 3,2 6,4 3,2 8,5 17,9 8,4 17,8 26,11 9,3 21,5 35,7 14,2 28,2 42,1 20,-1 36,-6 46,-15 11,-9 16,-19 15,-31 -1,-14 -7,-24 -19,-31 -11,-6 -35,-16 -71,-28 -10,-3 -18,-6 -25,-9 -7,-3 -14,-6 -23,-10 -8,-4 -16,-8 -22,-12 -6,-4 -12,-9 -17,-14 -5,-6 -10,-12 -13,-19 -3,-6 -5,-13 -5,-21 -2,-25 6,-46 25,-63 19,-17 47,-27 84,-30 42,-3 81,7 118,30l-13 30c-15,-9 -32,-16 -50,-22 -19,-5 -37,-7 -56,-5 -14,1 -24,5 -31,11 -8,6 -11,15 -10,27 1,10 7,19 19,27 11,8 31,16 60,24 40,12 69,24 86,37 18,13 28,31 30,54 1,12 -1,24 -5,35 -5,11 -12,22 -21,31 -10,10 -23,18 -39,24 -16,6 -35,10 -56,12 -17,1 -34,1 -50,-1 -16,-2 -30,-5 -41,-8 -11,-4 -21,-8 -30,-12 -8,-4 -15,-7 -19,-10l-6 -4zm274 -258l-1 -30 256 -14 2 30 -94 5 15 276 -69 4 -15 -276 -94 5zm251 217c0,-15 4,-34 12,-56 9,-23 20,-45 32,-67 13,-21 26,-43 40,-64 15,-21 27,-38 38,-52 10,-13 18,-23 23,-29l62 -1c13,43 32,95 57,154 25,60 48,111 70,152l-69 2c-28,-50 -66,-140 -115,-271 -2,4 -5,9 -9,15 -4,7 -10,19 -20,37 -9,18 -18,35 -25,51 -7,15 -14,32 -19,49 -6,18 -9,32 -9,42 1,17 10,25 28,25 13,0 29,-5 47,-14 19,-9 34,-19 47,-31l16 29c-12,10 -23,17 -32,24 -10,6 -22,14 -36,23 -15,8 -29,15 -44,20 -14,5 -27,7 -39,8 -17,0 -30,-3 -40,-11 -10,-7 -15,-19 -15,-35zm364 36l64 1 3 -276 81 0c48,1 72,17 72,48 -1,34 -44,72 -130,116l0 44c20,-10 38,-18 52,-26l78 96 78 0 -99 -124c31,-18 54,-36 68,-53 14,-17 21,-35 21,-52 0,-9 -1,-16 -3,-23 -2,-7 -4,-13 -7,-18 -3,-5 -7,-9 -13,-13 -5,-4 -10,-7 -15,-10 -5,-2 -11,-4 -19,-6 -7,-2 -14,-4 -20,-5 -5,-1 -13,-1 -21,-2 -9,-1 -16,-1 -21,-1 -6,0 -12,0 -21,0l-145 -2 -3 306zm431 -90l1 -35c63,2 111,2 143,0l-1 35c-32,2 -80,2 -143,0zm276 69l17 -26c2,1 3,3 6,5 2,2 7,6 15,11 7,6 15,11 24,15 8,5 19,9 33,13 13,4 27,7 41,8 21,2 37,0 49,-7 11,-7 18,-16 19,-29 1,-14 -3,-25 -13,-33 -10,-8 -32,-22 -66,-40 -9,-4 -17,-8 -23,-12 -7,-4 -14,-8 -21,-14 -8,-5 -15,-10 -20,-15 -5,-5 -10,-11 -15,-17 -4,-7 -7,-13 -9,-20 -2,-7 -3,-15 -2,-22 2,-25 13,-45 35,-58 21,-14 51,-19 87,-16 42,4 80,20 112,49l-18 27c-13,-11 -28,-21 -45,-29 -18,-9 -36,-14 -55,-15 -13,-1 -24,1 -32,6 -9,5 -13,13 -14,25 -1,10 4,20 14,30 10,10 28,21 55,33 38,18 64,35 80,51 15,16 22,35 20,57 -1,13 -4,24 -11,35 -6,10 -15,19 -26,27 -10,8 -25,13 -42,17 -17,3 -36,4 -57,3 -17,-2 -33,-5 -49,-9 -16,-5 -29,-10 -39,-15 -10,-6 -20,-11 -28,-16 -7,-5 -13,-10 -17,-13l-5 -6zm320 -69c2,-17 6,-33 11,-49 6,-15 14,-30 23,-44 10,-14 21,-26 34,-36 13,-10 28,-18 46,-23 17,-4 36,-6 56,-3 20,2 38,7 54,16 16,9 29,19 39,32 10,13 18,27 25,43 6,16 10,32 12,49 1,16 1,33 -1,50 -2,21 -7,40 -15,56 -8,16 -17,29 -28,38 -10,9 -23,16 -37,22 -14,5 -28,8 -42,9 -14,1 -28,0 -44,-1 -15,-2 -29,-5 -42,-9 -14,-4 -27,-11 -39,-19 -13,-8 -23,-18 -32,-29 -8,-12 -14,-26 -18,-43 -4,-18 -4,-37 -2,-59zm68 15c-4,35 0,62 13,82 12,20 31,32 56,35 24,2 45,-4 62,-21 16,-17 27,-43 31,-78 2,-19 3,-38 2,-56 -1,-17 -4,-34 -8,-50 -5,-15 -12,-28 -22,-38 -9,-10 -21,-16 -35,-17 -14,-2 -27,1 -39,8 -12,8 -22,19 -29,33 -8,14 -15,30 -20,47 -5,17 -9,35 -11,55zm264 164l45 -303 223 33 -5 29 -159 -23 -14 100 117 17 -4 22 -117 -17 -22 151 -64 -9zm261 40l56 -301 63 12 -56 301 -63 -12zm106 -25c3,-15 12,-33 25,-53 14,-20 29,-39 46,-57 17,-19 35,-37 53,-54 19,-18 35,-32 48,-43 13,-10 23,-18 29,-22l61 12c3,45 10,100 21,163 12,64 23,119 35,164l-68 -14c-16,-54 -33,-151 -52,-290 -3,3 -7,8 -12,13 -5,6 -14,16 -27,32 -14,15 -25,30 -36,44 -10,13 -20,28 -30,44 -10,16 -15,29 -18,39 -3,16 4,26 22,30 13,3 29,2 49,-3 20,-5 38,-12 53,-20l9 32c-14,6 -27,12 -37,16 -11,4 -24,9 -40,14 -17,5 -32,9 -47,10 -15,2 -28,1 -40,-1 -17,-3 -29,-10 -37,-19 -8,-9 -10,-22 -7,-37z"/>
 </g>
</svg>
